<mxfile host="65bd71144e">
    <diagram id="Ew0RzlASwtc3hsnnmCRV" name="Page-1">
        <mxGraphModel dx="696" dy="406" grid="1" gridSize="10" guides="1" tooltips="1" connect="1" arrows="1" fold="1" page="1" pageScale="1" pageWidth="850" pageHeight="1100" math="0" shadow="0">
            <root>
                <mxCell id="0"/>
                <mxCell id="1" parent="0"/>
                <mxCell id="35" value="" style="ellipse;whiteSpace=wrap;html=1;aspect=fixed;fontSize=12;dashed=1;" vertex="1" parent="1">
                    <mxGeometry x="250" y="810" width="80" height="80" as="geometry"/>
                </mxCell>
                <mxCell id="2" value="sourceDelta" style="ellipse;whiteSpace=wrap;html=1;aspect=fixed;fontSize=12;fillColor=#d5e8d4;strokeColor=#82b366;" vertex="1" parent="1">
                    <mxGeometry x="210" y="560" width="80" height="80" as="geometry"/>
                </mxCell>
                <mxCell id="3" value="deleted" style="ellipse;whiteSpace=wrap;html=1;aspect=fixed;fontSize=12;fillColor=#fff2cc;strokeColor=#d6b656;" vertex="1" parent="1">
                    <mxGeometry x="640" y="560" width="80" height="80" as="geometry"/>
                </mxCell>
                <mxCell id="4" value="sinkDelta" style="ellipse;whiteSpace=wrap;html=1;aspect=fixed;fontSize=12;fillColor=#f8cecc;strokeColor=#b85450;" vertex="1" parent="1">
                    <mxGeometry x="425" y="560" width="80" height="80" as="geometry"/>
                </mxCell>
                <mxCell id="5" value="" style="endArrow=classic;html=1;" edge="1" parent="1">
                    <mxGeometry width="50" height="50" relative="1" as="geometry">
                        <mxPoint x="10" y="600" as="sourcePoint"/>
                        <mxPoint x="200" y="600" as="targetPoint"/>
                    </mxGeometry>
                </mxCell>
                <mxCell id="6" value="SELECT * &lt;br style=&quot;font-size: 10px;&quot;&gt;FROM Source &lt;br style=&quot;font-size: 10px;&quot;&gt;&lt;div style=&quot;font-size: 10px;&quot;&gt;&lt;span style=&quot;background-color: initial; font-size: 10px;&quot;&gt;WHERE &lt;i&gt;updated_at&lt;/i&gt; &amp;gt; anchor&lt;/span&gt;&lt;/div&gt;" style="text;html=1;align=left;verticalAlign=middle;resizable=0;points=[];autosize=1;strokeColor=none;fillColor=none;fontSize=10;" vertex="1" parent="1">
                    <mxGeometry x="30" y="550" width="160" height="50" as="geometry"/>
                </mxCell>
                <mxCell id="8" value="&lt;b&gt;reachedPartitions&lt;/b&gt; = &lt;b&gt;source&lt;/b&gt;&lt;br&gt;&lt;blockquote style=&quot;margin: 0 0 0 40px; border: none; padding: 0px;&quot;&gt;&lt;/blockquote&gt;&amp;nbsp; &lt;span style=&quot;&quot;&gt;&#9;&lt;/span&gt;&lt;span style=&quot;&quot;&gt;&#9;&lt;/span&gt;&lt;span style=&quot;&quot;&gt;&#9;&lt;/span&gt;&lt;span style=&quot;&quot;&gt;&#9;&lt;/span&gt;&amp;nbsp;&lt;span style=&quot;white-space: pre;&quot;&gt;&#9;&lt;/span&gt;&lt;span style=&quot;white-space: pre;&quot;&gt;&#9;&lt;/span&gt;&lt;span style=&quot;white-space: pre;&quot;&gt;&#9;&lt;/span&gt;&lt;span style=&quot;white-space: pre;&quot;&gt;&#9;&lt;/span&gt;&amp;nbsp; .&lt;span&gt;&lt;i&gt;select&lt;/i&gt;&lt;/span&gt;(&lt;span style=&quot;&quot;&gt;&lt;i&gt;date&lt;/i&gt;&lt;/span&gt;(created_at))&lt;br&gt;&amp;nbsp; &lt;span style=&quot;&quot;&gt;&#9;&lt;/span&gt;&lt;span style=&quot;&quot;&gt;&#9;&lt;/span&gt;&lt;span style=&quot;&quot;&gt;&#9;&lt;/span&gt;&lt;span style=&quot;&quot;&gt;&#9;&lt;/span&gt;&amp;nbsp;&lt;span style=&quot;white-space: pre;&quot;&gt;&#9;&lt;/span&gt;&lt;span style=&quot;white-space: pre;&quot;&gt;&#9;&lt;/span&gt;&lt;span style=&quot;white-space: pre;&quot;&gt;&#9;&lt;/span&gt;&lt;span style=&quot;white-space: pre;&quot;&gt;&#9;&lt;/span&gt;&amp;nbsp; .&lt;span&gt;&lt;i&gt;distinct&lt;/i&gt;&lt;/span&gt;()&lt;br&gt;&lt;span style=&quot;white-space: pre;&quot;&gt;&#9;&lt;/span&gt;&lt;span style=&quot;white-space: pre;&quot;&gt;&#9;&lt;/span&gt;&lt;span style=&quot;white-space: pre;&quot;&gt;&#9;&lt;/span&gt;&lt;span style=&quot;white-space: pre;&quot;&gt;&#9;&lt;/span&gt;&amp;nbsp; .&lt;span&gt;&lt;i&gt;union&lt;/i&gt;&lt;/span&gt;(&lt;br&gt;&lt;span style=&quot;white-space: pre;&quot;&gt;&#9;&lt;/span&gt;&lt;span style=&quot;white-space: pre;&quot;&gt;&#9;&lt;/span&gt;&lt;span style=&quot;white-space: pre;&quot;&gt;&#9;&lt;/span&gt;&lt;span style=&quot;white-space: pre;&quot;&gt;&#9;&lt;/span&gt;&lt;span style=&quot;white-space: pre;&quot;&gt;&#9;&lt;/span&gt;&lt;b&gt;deleted&lt;/b&gt;&lt;br&gt;&lt;span style=&quot;white-space: pre;&quot;&gt;&#9;&lt;/span&gt;&lt;span style=&quot;white-space: pre;&quot;&gt;&#9;&lt;/span&gt;&lt;span style=&quot;white-space: pre;&quot;&gt;&#9;&lt;/span&gt;&lt;span style=&quot;white-space: pre;&quot;&gt;&#9;&lt;/span&gt;&lt;span style=&quot;white-space: pre;&quot;&gt;&#9;&lt;/span&gt;&amp;nbsp; &amp;nbsp; .&lt;span&gt;&lt;i&gt;select&lt;/i&gt;&lt;/span&gt;(&lt;span&gt;&lt;i&gt;date&lt;/i&gt;&lt;/span&gt;(created_at))&lt;br&gt;&lt;span style=&quot;white-space: pre;&quot;&gt;&#9;&lt;/span&gt;&lt;span style=&quot;white-space: pre;&quot;&gt;&#9;&lt;/span&gt;&lt;span style=&quot;white-space: pre;&quot;&gt;&#9;&lt;/span&gt;&lt;span style=&quot;white-space: pre;&quot;&gt;&#9;&lt;/span&gt;&lt;span style=&quot;white-space: pre;&quot;&gt;&#9;&amp;nbsp;&lt;/span&gt;&amp;nbsp; &amp;nbsp;.&lt;span&gt;&lt;i&gt;distinct&lt;/i&gt;&lt;/span&gt;()&lt;span style=&quot;white-space: pre;&quot;&gt;&#9;&lt;/span&gt;&lt;span style=&quot;white-space: pre;&quot;&gt;&#9;&lt;/span&gt;&lt;span style=&quot;white-space: pre;&quot;&gt;&#9;&lt;/span&gt;&lt;span style=&quot;white-space: pre;&quot;&gt;&#9;&lt;/span&gt;&lt;span style=&quot;white-space: pre;&quot;&gt;&#9;&lt;/span&gt;&lt;br&gt;&lt;span style=&quot;white-space: pre;&quot;&gt;&#9;&lt;/span&gt;&lt;span style=&quot;white-space: pre;&quot;&gt;&#9;&lt;/span&gt;&lt;span style=&quot;white-space: pre;&quot;&gt;&#9;&lt;/span&gt;&lt;span style=&quot;white-space: pre;&quot;&gt;&#9;&lt;/span&gt;&amp;nbsp; )&lt;br&gt;&lt;span style=&quot;&quot;&gt;&#9;&lt;/span&gt;&lt;span style=&quot;&quot;&gt;&#9;&lt;/span&gt;&lt;span style=&quot;&quot;&gt;&#9;&lt;span style=&quot;&quot;&gt;&#9;&lt;/span&gt;&lt;/span&gt;&amp;nbsp;&lt;span style=&quot;white-space: pre;&quot;&gt;&#9;&lt;/span&gt;&lt;span style=&quot;white-space: pre;&quot;&gt;&#9;&lt;/span&gt;&lt;span style=&quot;white-space: pre;&quot;&gt;&#9;&lt;/span&gt;&lt;span style=&quot;white-space: pre;&quot;&gt;&#9;&lt;/span&gt;&amp;nbsp; .&lt;span&gt;&lt;i&gt;collect&lt;/i&gt;&lt;/span&gt;()&lt;br&gt;&lt;span style=&quot;&quot;&gt;&#9;&lt;/span&gt;&lt;span style=&quot;&quot;&gt;&#9;&lt;/span&gt;&lt;span style=&quot;&quot;&gt;&#9;&lt;/span&gt;&lt;span style=&quot;&quot;&gt;&#9;&lt;/span&gt;&amp;nbsp;&lt;span style=&quot;white-space: pre;&quot;&gt;&#9;&lt;/span&gt;&lt;span style=&quot;white-space: pre;&quot;&gt;&#9;&lt;/span&gt;&lt;span style=&quot;white-space: pre;&quot;&gt;&#9;&lt;/span&gt;&lt;span style=&quot;white-space: pre;&quot;&gt;&#9;&lt;/span&gt;&amp;nbsp; .&lt;span&gt;&lt;i&gt;toArray&lt;/i&gt;&lt;/span&gt;()&amp;nbsp;&amp;nbsp;&lt;br&gt;&lt;br&gt;&lt;b&gt;sinkDelta&lt;/b&gt; = &lt;b&gt;sink&lt;/b&gt;&lt;br&gt;&lt;span style=&quot;white-space: pre;&quot;&gt;&#9;&lt;/span&gt;&lt;span style=&quot;white-space: pre;&quot;&gt;&#9;&lt;/span&gt;&amp;nbsp; &amp;nbsp; &amp;nbsp;.&lt;span&gt;&lt;i&gt;filter&lt;/i&gt;&lt;/span&gt;(&lt;span&gt;&lt;i&gt;col&lt;/i&gt;&lt;/span&gt;(created_at).&lt;span&gt;&lt;i&gt;isIn&lt;/i&gt;&lt;/span&gt;(&lt;b&gt;reachedPartitions&lt;/b&gt;))&lt;br&gt;&lt;span style=&quot;white-space: pre;&quot;&gt;&#9;&lt;/span&gt;&lt;span style=&quot;white-space: pre;&quot;&gt;&#9;&lt;/span&gt;&amp;nbsp; &amp;nbsp; &amp;nbsp;.&lt;span&gt;&lt;i&gt;filter&lt;/i&gt;&lt;/span&gt;(&lt;span&gt;&lt;i&gt;col&lt;/i&gt;&lt;/span&gt;(updated_at).&lt;span&gt;&lt;i&gt;gt&lt;/i&gt;&lt;/span&gt;(&lt;b&gt;anchor&lt;/b&gt;))" style="text;html=1;align=left;verticalAlign=middle;resizable=0;points=[];autosize=1;strokeColor=none;fillColor=none;fontSize=10;fontStyle=0" vertex="1" parent="1">
                    <mxGeometry x="480" y="320" width="290" height="180" as="geometry"/>
                </mxCell>
                <mxCell id="10" value="SELECT * &lt;br&gt;FROM Deleted &lt;br&gt;WHERE deleted_at &amp;gt; anchor" style="text;html=1;align=left;verticalAlign=middle;resizable=0;points=[];autosize=1;strokeColor=none;fillColor=none;fontSize=9;" vertex="1" parent="1">
                    <mxGeometry x="760" y="550" width="140" height="50" as="geometry"/>
                </mxCell>
                <mxCell id="12" value="" style="endArrow=classic;html=1;fontSize=9;" edge="1" parent="1">
                    <mxGeometry width="50" height="50" relative="1" as="geometry">
                        <mxPoint x="464.29" y="320" as="sourcePoint"/>
                        <mxPoint x="464.29" y="540" as="targetPoint"/>
                    </mxGeometry>
                </mxCell>
                <mxCell id="13" value="ALGORITHM 1" style="rounded=1;whiteSpace=wrap;html=1;fontSize=12;" vertex="1" parent="1">
                    <mxGeometry x="290" y="700" width="120" height="60" as="geometry"/>
                </mxCell>
                <mxCell id="14" value="" style="endArrow=classic;html=1;fontSize=12;" edge="1" parent="1">
                    <mxGeometry width="50" height="50" relative="1" as="geometry">
                        <mxPoint x="280" y="640" as="sourcePoint"/>
                        <mxPoint x="310" y="690" as="targetPoint"/>
                    </mxGeometry>
                </mxCell>
                <mxCell id="15" value="" style="endArrow=classic;html=1;fontSize=12;" edge="1" parent="1">
                    <mxGeometry width="50" height="50" relative="1" as="geometry">
                        <mxPoint x="430" y="640" as="sourcePoint"/>
                        <mxPoint x="400" y="690" as="targetPoint"/>
                    </mxGeometry>
                </mxCell>
                <mxCell id="18" value="Mised records" style="ellipse;whiteSpace=wrap;html=1;aspect=fixed;fontSize=12;fillColor=#e1d5e7;strokeColor=#9673a6;" vertex="1" parent="1">
                    <mxGeometry x="260" y="820" width="60" height="60" as="geometry"/>
                </mxCell>
                <mxCell id="19" value="Stale records" style="ellipse;whiteSpace=wrap;html=1;aspect=fixed;fontSize=12;fillColor=#ffcc99;strokeColor=#36393d;" vertex="1" parent="1">
                    <mxGeometry x="381" y="819" width="60" height="60" as="geometry"/>
                </mxCell>
                <mxCell id="20" value="" style="endArrow=classic;html=1;fontSize=12;" edge="1" parent="1">
                    <mxGeometry width="50" height="50" relative="1" as="geometry">
                        <mxPoint x="380" y="770" as="sourcePoint"/>
                        <mxPoint x="400" y="810" as="targetPoint"/>
                    </mxGeometry>
                </mxCell>
                <mxCell id="21" value="" style="endArrow=classic;html=1;fontSize=12;" edge="1" parent="1">
                    <mxGeometry width="50" height="50" relative="1" as="geometry">
                        <mxPoint x="320" y="770" as="sourcePoint"/>
                        <mxPoint x="300" y="810" as="targetPoint"/>
                    </mxGeometry>
                </mxCell>
                <mxCell id="22" value="" style="endArrow=classic;html=1;fontSize=9;" edge="1" parent="1">
                    <mxGeometry width="50" height="50" relative="1" as="geometry">
                        <mxPoint x="900" y="599" as="sourcePoint"/>
                        <mxPoint x="740" y="599.29" as="targetPoint"/>
                    </mxGeometry>
                </mxCell>
                <mxCell id="23" value="" style="endArrow=classic;html=1;fontSize=12;" edge="1" parent="1">
                    <mxGeometry width="50" height="50" relative="1" as="geometry">
                        <mxPoint x="496" y="640" as="sourcePoint"/>
                        <mxPoint x="527" y="690" as="targetPoint"/>
                    </mxGeometry>
                </mxCell>
                <mxCell id="24" value="" style="endArrow=classic;html=1;fontSize=12;" edge="1" parent="1">
                    <mxGeometry width="50" height="50" relative="1" as="geometry">
                        <mxPoint x="650" y="640" as="sourcePoint"/>
                        <mxPoint x="620" y="690" as="targetPoint"/>
                    </mxGeometry>
                </mxCell>
                <mxCell id="25" value="" style="ellipse;whiteSpace=wrap;html=1;aspect=fixed;fillColor=#f8cecc;strokeColor=#b85450;" vertex="1" parent="1">
                    <mxGeometry x="505" y="710" width="80" height="80" as="geometry"/>
                </mxCell>
                <mxCell id="26" value="" style="ellipse;whiteSpace=wrap;html=1;aspect=fixed;fillColor=#fff2cc;strokeColor=#d6b656;" vertex="1" parent="1">
                    <mxGeometry x="560" y="710" width="80" height="80" as="geometry"/>
                </mxCell>
                <mxCell id="27" value="" style="whiteSpace=wrap;html=1;shape=mxgraph.basic.pointed_oval;fillColor=#dae8fc;strokeColor=#6c8ebf;" vertex="1" parent="1">
                    <mxGeometry x="555" y="721" width="35" height="58" as="geometry"/>
                </mxCell>
                <mxCell id="32" value="" style="whiteSpace=wrap;html=1;shape=mxgraph.basic.pointed_oval;fillColor=#dae8fc;strokeColor=#6c8ebf;" vertex="1" parent="1">
                    <mxGeometry x="555" y="840" width="35" height="58" as="geometry"/>
                </mxCell>
                <mxCell id="33" value="" style="endArrow=classic;html=1;fontSize=12;" edge="1" parent="1">
                    <mxGeometry width="50" height="50" relative="1" as="geometry">
                        <mxPoint x="572.08" y="790" as="sourcePoint"/>
                        <mxPoint x="572" y="830" as="targetPoint"/>
                    </mxGeometry>
                </mxCell>
                <mxCell id="34" value="&lt;span style=&quot;text-align: left;&quot;&gt;&lt;b&gt;mayNotBeDeleted&lt;/b&gt; =&amp;nbsp;&lt;/span&gt;&lt;b&gt;sinkDelta&lt;/b&gt;.&lt;i&gt;join&lt;/i&gt;(&lt;b&gt;deleted&lt;/b&gt;, &lt;b&gt;sinkDelta&lt;/b&gt;.id == &lt;b&gt;deleted&lt;/b&gt;.id, &quot;inner&quot;)" style="text;html=1;align=center;verticalAlign=middle;resizable=0;points=[];autosize=1;strokeColor=none;fillColor=none;fontSize=12;" vertex="1" parent="1">
                    <mxGeometry x="570" y="790" width="450" height="30" as="geometry"/>
                </mxCell>
                <mxCell id="36" value="Missing records" style="text;html=1;align=center;verticalAlign=middle;resizable=0;points=[];autosize=1;strokeColor=none;fillColor=none;fontSize=12;dashed=1;" vertex="1" parent="1">
                    <mxGeometry x="135" y="785" width="110" height="30" as="geometry"/>
                </mxCell>
                <mxCell id="37" value="" style="curved=1;endArrow=classic;html=1;fontSize=12;exitX=0;exitY=0.5;exitDx=0;exitDy=0;entryX=0.535;entryY=0.973;entryDx=0;entryDy=0;entryPerimeter=0;" edge="1" parent="1" source="35" target="36">
                    <mxGeometry width="50" height="50" relative="1" as="geometry">
                        <mxPoint x="180" y="870" as="sourcePoint"/>
                        <mxPoint x="230" y="820" as="targetPoint"/>
                        <Array as="points">
                            <mxPoint x="230" y="830"/>
                            <mxPoint x="200" y="850"/>
                            <mxPoint x="190" y="830"/>
                        </Array>
                    </mxGeometry>
                </mxCell>
                <mxCell id="39" value="" style="endArrow=none;html=1;fontSize=16;endSize=6;jumpSize=8;startSize=12;exitX=0.181;exitY=0.681;exitDx=0;exitDy=0;exitPerimeter=0;entryX=0.812;entryY=0.316;entryDx=0;entryDy=0;entryPerimeter=0;" edge="1" parent="1" source="32" target="32">
                    <mxGeometry width="50" height="50" relative="1" as="geometry">
                        <mxPoint x="563" y="881" as="sourcePoint"/>
                        <mxPoint x="583" y="857" as="targetPoint"/>
                    </mxGeometry>
                </mxCell>
                <mxCell id="40" value="" style="endArrow=none;html=1;fontSize=16;entryX=0.855;entryY=0.417;entryDx=0;entryDy=0;entryPerimeter=0;exitX=0.245;exitY=0.768;exitDx=0;exitDy=0;exitPerimeter=0;" edge="1" parent="1" source="32" target="32">
                    <mxGeometry width="50" height="50" relative="1" as="geometry">
                        <mxPoint x="560" y="889.9999999999995" as="sourcePoint"/>
                        <mxPoint x="590" y="859.9999999999995" as="targetPoint"/>
                    </mxGeometry>
                </mxCell>
                <mxCell id="41" value="" style="endArrow=none;html=1;fontSize=16;exitX=0.304;exitY=0.856;exitDx=0;exitDy=0;exitPerimeter=0;entryX=0.871;entryY=0.526;entryDx=0;entryDy=0;entryPerimeter=0;" edge="1" parent="1" source="32" target="32">
                    <mxGeometry width="50" height="50" relative="1" as="geometry">
                        <mxPoint x="589.9959999999999" y="884.36" as="sourcePoint"/>
                        <mxPoint x="621.68" y="853.6399999999995" as="targetPoint"/>
                    </mxGeometry>
                </mxCell>
                <mxCell id="42" value="" style="endArrow=none;html=1;fontSize=16;exitX=0.4;exitY=0.93;exitDx=0;exitDy=0;exitPerimeter=0;entryX=0.818;entryY=0.678;entryDx=0;entryDy=0;entryPerimeter=0;" edge="1" parent="1" target="32" source="32">
                    <mxGeometry width="50" height="50" relative="1" as="geometry">
                        <mxPoint x="590.0020000000003" y="891.94" as="sourcePoint"/>
                        <mxPoint x="596.692" y="879.9960000000001" as="targetPoint"/>
                    </mxGeometry>
                </mxCell>
                <mxCell id="43" value="" style="endArrow=none;html=1;fontSize=16;exitX=0.465;exitY=0.969;exitDx=0;exitDy=0;exitPerimeter=0;entryX=0.711;entryY=0.827;entryDx=0;entryDy=0;entryPerimeter=0;" edge="1" parent="1" target="32" source="32">
                    <mxGeometry width="50" height="50" relative="1" as="geometry">
                        <mxPoint x="622.1519999999996" y="925.8900000000003" as="sourcePoint"/>
                        <mxPoint x="622.6919999999999" y="917.212" as="targetPoint"/>
                    </mxGeometry>
                </mxCell>
                <mxCell id="50" value="" style="whiteSpace=wrap;html=1;shape=mxgraph.basic.pointed_oval;fillColor=#dae8fc;strokeColor=#6c8ebf;" vertex="1" parent="1">
                    <mxGeometry x="445.5" y="830" width="35" height="58" as="geometry"/>
                </mxCell>
                <mxCell id="51" value="" style="endArrow=none;html=1;fontSize=16;endSize=6;jumpSize=8;startSize=12;exitX=0.181;exitY=0.681;exitDx=0;exitDy=0;exitPerimeter=0;entryX=0.812;entryY=0.316;entryDx=0;entryDy=0;entryPerimeter=0;" edge="1" parent="1" source="50" target="50">
                    <mxGeometry width="50" height="50" relative="1" as="geometry">
                        <mxPoint x="453.5" y="871" as="sourcePoint"/>
                        <mxPoint x="473.5" y="847" as="targetPoint"/>
                    </mxGeometry>
                </mxCell>
                <mxCell id="52" value="" style="endArrow=none;html=1;fontSize=16;entryX=0.855;entryY=0.417;entryDx=0;entryDy=0;entryPerimeter=0;exitX=0.245;exitY=0.768;exitDx=0;exitDy=0;exitPerimeter=0;" edge="1" parent="1" source="50" target="50">
                    <mxGeometry width="50" height="50" relative="1" as="geometry">
                        <mxPoint x="450.5" y="879.9999999999995" as="sourcePoint"/>
                        <mxPoint x="480.5" y="849.9999999999995" as="targetPoint"/>
                    </mxGeometry>
                </mxCell>
                <mxCell id="53" value="" style="endArrow=none;html=1;fontSize=16;exitX=0.304;exitY=0.856;exitDx=0;exitDy=0;exitPerimeter=0;entryX=0.871;entryY=0.526;entryDx=0;entryDy=0;entryPerimeter=0;" edge="1" parent="1" source="50" target="50">
                    <mxGeometry width="50" height="50" relative="1" as="geometry">
                        <mxPoint x="480.49599999999987" y="874.36" as="sourcePoint"/>
                        <mxPoint x="512.18" y="843.6399999999995" as="targetPoint"/>
                    </mxGeometry>
                </mxCell>
                <mxCell id="54" value="" style="endArrow=none;html=1;fontSize=16;exitX=0.4;exitY=0.93;exitDx=0;exitDy=0;exitPerimeter=0;entryX=0.818;entryY=0.678;entryDx=0;entryDy=0;entryPerimeter=0;" edge="1" parent="1" source="50" target="50">
                    <mxGeometry width="50" height="50" relative="1" as="geometry">
                        <mxPoint x="480.5020000000003" y="881.94" as="sourcePoint"/>
                        <mxPoint x="487.192" y="869.9960000000001" as="targetPoint"/>
                    </mxGeometry>
                </mxCell>
                <mxCell id="55" value="" style="endArrow=none;html=1;fontSize=16;exitX=0.465;exitY=0.969;exitDx=0;exitDy=0;exitPerimeter=0;entryX=0.711;entryY=0.827;entryDx=0;entryDy=0;entryPerimeter=0;" edge="1" parent="1" source="50" target="50">
                    <mxGeometry width="50" height="50" relative="1" as="geometry">
                        <mxPoint x="512.6519999999996" y="915.8900000000003" as="sourcePoint"/>
                        <mxPoint x="513.1919999999999" y="907.212" as="targetPoint"/>
                    </mxGeometry>
                </mxCell>
                <mxCell id="56" value="" style="rounded=0;whiteSpace=wrap;html=1;dashed=1;fontSize=12;rotation=316;strokeColor=none;" vertex="1" parent="1">
                    <mxGeometry x="438" y="858" width="75" height="60" as="geometry"/>
                </mxCell>
                <mxCell id="58" value="" style="ellipse;whiteSpace=wrap;html=1;dashed=1;fontSize=12;fillColor=none;" vertex="1" parent="1">
                    <mxGeometry x="365" y="810" width="120" height="90" as="geometry"/>
                </mxCell>
                <mxCell id="59" value="" style="endArrow=classic;html=1;fontSize=12;startSize=12;endSize=6;jumpSize=8;" edge="1" parent="1">
                    <mxGeometry width="50" height="50" relative="1" as="geometry">
                        <mxPoint x="550" y="860" as="sourcePoint"/>
                        <mxPoint x="490" y="850" as="targetPoint"/>
                    </mxGeometry>
                </mxCell>
                <mxCell id="60" value="union" style="text;html=1;align=center;verticalAlign=middle;resizable=0;points=[];autosize=1;strokeColor=none;fillColor=none;fontSize=9;fontStyle=1" vertex="1" parent="1">
                    <mxGeometry x="400" y="882" width="50" height="20" as="geometry"/>
                </mxCell>
                <mxCell id="61" value="&lt;span style=&quot;font-size: 12px;&quot;&gt;&lt;b&gt;mayNotBeDeleted&lt;/b&gt;.&lt;/span&gt;&lt;i style=&quot;font-size: 12px;&quot;&gt;filter&lt;/i&gt;(&lt;i&gt;col(&lt;/i&gt;created_at&lt;i&gt;) - unix_timestamp(&lt;/i&gt;now&lt;i&gt;) &amp;gt; &lt;/i&gt;46*60)" style="text;html=1;align=left;verticalAlign=middle;resizable=0;points=[];autosize=1;strokeColor=none;fontSize=12;fontStyle=0" vertex="1" parent="1">
                    <mxGeometry x="650" y="840" width="410" height="30" as="geometry"/>
                </mxCell>
                <mxCell id="62" value="" style="curved=1;endArrow=classic;html=1;fontSize=9;startSize=12;endSize=6;jumpSize=8;exitX=0.813;exitY=0.241;exitDx=0;exitDy=0;exitPerimeter=0;" edge="1" parent="1" source="32">
                    <mxGeometry width="50" height="50" relative="1" as="geometry">
                        <mxPoint x="630" y="900" as="sourcePoint"/>
                        <mxPoint x="650" y="860" as="targetPoint"/>
                        <Array as="points">
                            <mxPoint x="610" y="850"/>
                            <mxPoint x="630" y="870"/>
                        </Array>
                    </mxGeometry>
                </mxCell>
                <mxCell id="63" value="" style="curved=1;endArrow=classic;html=1;fontSize=12;startSize=12;endSize=6;jumpSize=8;exitX=0.765;exitY=0.947;exitDx=0;exitDy=0;exitPerimeter=0;" edge="1" parent="1" source="58">
                    <mxGeometry width="50" height="50" relative="1" as="geometry">
                        <mxPoint x="470" y="950" as="sourcePoint"/>
                        <mxPoint x="500" y="980" as="targetPoint"/>
                        <Array as="points">
                            <mxPoint x="457" y="930"/>
                            <mxPoint x="510" y="940"/>
                        </Array>
                    </mxGeometry>
                </mxCell>
                <mxCell id="64" value="Stale records" style="text;html=1;align=center;verticalAlign=middle;resizable=0;points=[];autosize=1;strokeColor=none;fillColor=none;fontSize=12;" vertex="1" parent="1">
                    <mxGeometry x="450" y="985" width="90" height="30" as="geometry"/>
                </mxCell>
            </root>
        </mxGraphModel>
    </diagram>
</mxfile>
